<svg width="16" height="16" viewBox="0 0 16 16" fill="none" xmlns="http://www.w3.org/2000/svg">
<g clip-path="url(#clip0_38_6954)">
<g clip-path="url(#clip1_38_6954)">
<mask id="mask0_38_6954" style="mask-type:luminance" maskUnits="userSpaceOnUse" x="0" y="0" width="16" height="16">
<path d="M0 0H16V16H0V0Z" fill="white"/>
</mask>
<g mask="url(#mask0_38_6954)">
<path d="M13.2156 4.59675C13.4184 3.78575 13.3951 3.00005 12.5591 3.00005L7.25 3.00005C6.75 3.00005 6.47589 3.22699 6.25 3.40335C6.02411 3.5797 5.56952 4.47202 5.5 4.75005M2.58314 7.00005H14.75M11.8784 8.49055L12.25 7.50005M4.75 8.49055L5.1216 7.50005M13.8058 11.3734L15.35 6.59678C15.5528 5.78578 14.9394 5.00007 14.1034 5.00007L3.82984 5.00004C3.54326 5.00002 3.2649 5.0958 3.03901 5.27216C2.81311 5.44851 2.65266 5.69532 2.58314 5.97334L1.03898 10.75C0.836281 11.5611 1.44968 12.3468 2.28568 12.3468L12.5591 12.3468C12.8457 12.3468 13.1241 12.251 13.35 12.0747C13.5759 11.8983 13.7363 11.6515 13.8058 11.3734Z" stroke="white" stroke-width="1.3" stroke-linecap="round"/>
</g>
</g>
</g>
<defs>
<clipPath id="clip0_38_6954">
<rect width="16" height="16" fill="white"/>
</clipPath>
<clipPath id="clip1_38_6954">
<rect width="16" height="16" fill="white"/>
</clipPath>
</defs>
</svg>
